{
	"asset":{
		"generator":"Khronos glTF Blender I/O v4.1.62",
		"version":"2.0"
	},
	"extensionsUsed":[
		"KHR_materials_specular"
	],
	"scene":0,
	"scenes":[
		{
			"name":"Scene",
			"nodes":[
				0
			]
		}
	],
	"nodes":[
		{
			"mesh":0,
			"name":"Head",
			"rotation":[
				0.7071068286895752,
				0,
				0,
				0.7071068286895752
			],
			"scale":[
				0.009999999776482582,
				0.009999999776482582,
				0.009999999776482582
			]
		}
	],
	"materials":[
		{
			"doubleSided":true,
			"extensions":{
				"KHR_materials_specular":{
					"specularColorFactor":[
						2.0,
						2.0,
						2.0
					]
				}
			},
			"name":"Head.001",
			"pbrMetallicRoughness":{
				"baseColorTexture":{
					"index":0
				}
			}
		}
	],
	"meshes":[
		{
			"name":"Head.001",
			"primitives":[
				{
					"attributes":{
						"POSITION":0,
						"NORMAL":1,
						"TEXCOORD_0":2
					},
					"indices":3,
					"material":0
				}
			]
		}
	],
	"textures":[
		{
			"sampler":0,
			"source":0
		}
	],
	"images":[
		{
			"mimeType":"image/png",
			"name":"Diffuse Texture",
			"uri":"Diffuse%20Texture.png"
		}
	],
	"accessors":[
		{
			"bufferView":0,
			"componentType":5126,
			"count":68669,
			"max":[
				0.8825815916061401,
				0.7576050758361816,
				0.9984393119812012
			],
			"min":[
				-0.8139128088951111,
				-0.9715737700462341,
				-1.1460539102554321
			],
			"type":"VEC3"
		},
		{
			"bufferView":1,
			"componentType":5126,
			"count":68669,
			"type":"VEC3"
		},
		{
			"bufferView":2,
			"componentType":5126,
			"count":68669,
			"type":"VEC2"
		},
		{
			"bufferView":3,
			"componentType":5125,
			"count":397395,
			"type":"SCALAR"
		}
	],
	"bufferViews":[
		{
			"buffer":0,
			"byteLength":824028,
			"byteOffset":0,
			"target":34962
		},
		{
			"buffer":0,
			"byteLength":824028,
			"byteOffset":824028,
			"target":34962
		},
		{
			"buffer":0,
			"byteLength":549352,
			"byteOffset":1648056,
			"target":34962
		},
		{
			"buffer":0,
			"byteLength":1589580,
			"byteOffset":2197408,
			"target":34963
		}
	],
	"samplers":[
		{
			"magFilter":9729,
			"minFilter":9987
		}
	],
	"buffers":[
		{
			"byteLength":3786988,
			"uri":"untitled.bin"
		}
	]
}
